<svg xmlns="http://www.w3.org/2000/svg" viewBox="0 0 1400 900" font-family="-apple-system, 'Segoe UI', Roboto, Helvetica, Arial, sans-serif">
  <defs>
    <linearGradient id="logoGrad" x1="0" y1="0" x2="1" y2="1">
      <stop offset="0%" stop-color="#6366F1"/>
      <stop offset="100%" stop-color="#8B5CF6"/>
    </linearGradient>
    <filter id="cardShadow" x="-2%" y="-2%" width="104%" height="108%">
      <feDropShadow dx="0" dy="1" stdDeviation="2" flood-color="#0F172A" flood-opacity="0.04"/>
    </filter>
  </defs>

  <!-- Page background -->
  <rect width="1400" height="900" fill="#F8FAFC"/>

  <!-- Sidebar -->
  <rect x="0" y="0" width="220" height="900" fill="#FFFFFF" stroke="#E2E8F0" stroke-width="1"/>
  <rect x="0" y="0" width="220" height="64" fill="#FFFFFF"/>

  <!-- Logo -->
  <rect x="20" y="20" width="24" height="24" rx="6" fill="url(#logoGrad)"/>
  <path d="M26 32 L30 36 L40 26" stroke="#FFFFFF" stroke-width="2.4" fill="none" stroke-linecap="round" stroke-linejoin="round"/>
  <text x="54" y="38" font-size="15" font-weight="700" fill="#0F172A">API Graveyard</text>

  <!-- Sidebar sections -->
  <text x="20" y="86" font-size="11" font-weight="600" fill="#94A3B8" letter-spacing="0.05em">OVERVIEW</text>

  <rect x="12" y="98" width="196" height="36" rx="8" fill="#EEF2FF"/>
  <rect x="20" y="110" width="14" height="14" rx="2" fill="none" stroke="#4F46E5" stroke-width="1.6"/>
  <text x="46" y="121" font-size="13" font-weight="600" fill="#4F46E5">Dashboard</text>

  <rect x="20" y="146" width="14" height="14" rx="2" fill="none" stroke="#64748B" stroke-width="1.4"/>
  <text x="46" y="157" font-size="13" fill="#334155">Dependencies</text>

  <rect x="20" y="182" width="14" height="14" rx="2" fill="none" stroke="#64748B" stroke-width="1.4"/>
  <text x="46" y="193" font-size="13" fill="#334155">Risk events</text>
  <rect x="160" y="180" width="22" height="18" rx="9" fill="#DC2626"/>
  <text x="171" y="193" font-size="11" font-weight="700" fill="#FFFFFF" text-anchor="middle">3</text>

  <rect x="20" y="218" width="14" height="14" rx="2" fill="none" stroke="#64748B" stroke-width="1.4"/>
  <text x="46" y="229" font-size="13" fill="#334155">Zombie APIs</text>
  <rect x="160" y="216" width="22" height="18" rx="9" fill="#F1F5F9"/>
  <text x="171" y="229" font-size="11" font-weight="600" fill="#475569" text-anchor="middle">5</text>

  <rect x="20" y="254" width="14" height="14" rx="2" fill="none" stroke="#64748B" stroke-width="1.4"/>
  <text x="46" y="265" font-size="13" fill="#334155">Webhooks</text>

  <text x="20" y="318" font-size="11" font-weight="600" fill="#94A3B8" letter-spacing="0.05em">PROJECT</text>
  <rect x="20" y="330" width="14" height="14" rx="2" fill="none" stroke="#64748B" stroke-width="1.4"/>
  <text x="46" y="341" font-size="13" fill="#334155">Integrations</text>

  <rect x="20" y="366" width="14" height="14" rx="2" fill="none" stroke="#64748B" stroke-width="1.4"/>
  <text x="46" y="377" font-size="13" fill="#334155">Members</text>

  <rect x="20" y="402" width="14" height="14" rx="2" fill="none" stroke="#64748B" stroke-width="1.4"/>
  <text x="46" y="413" font-size="13" fill="#334155">Settings</text>

  <!-- User card at bottom -->
  <rect x="12" y="828" width="196" height="56" rx="8" fill="#F8FAFC"/>
  <circle cx="36" cy="856" r="14" fill="#6366F1"/>
  <text x="36" y="861" font-size="12" font-weight="700" fill="#FFFFFF" text-anchor="middle">AS</text>
  <text x="60" y="852" font-size="13" font-weight="600" fill="#0F172A">Aviad Shakargy</text>
  <text x="60" y="868" font-size="11" fill="#64748B">Owner · Free</text>

  <!-- Top bar -->
  <rect x="220" y="0" width="1180" height="64" fill="#FFFFFF" stroke="#E2E8F0" stroke-width="1"/>

  <!-- Project switcher -->
  <rect x="244" y="18" width="184" height="32" rx="8" fill="#FFFFFF" stroke="#E2E8F0"/>
  <circle cx="262" cy="34" r="6" fill="#10B981"/>
  <text x="276" y="38" font-size="13" font-weight="600" fill="#0F172A">acme-prod</text>
  <path d="M408 32 l6 6 l6 -6" stroke="#94A3B8" stroke-width="1.4" fill="none" stroke-linecap="round" stroke-linejoin="round"/>

  <!-- Environment chip -->
  <rect x="442" y="22" width="92" height="24" rx="12" fill="#ECFDF5"/>
  <circle cx="456" cy="34" r="3" fill="#10B981"/>
  <text x="466" y="38" font-size="12" font-weight="600" fill="#047857">production</text>

  <!-- Time range -->
  <rect x="1098" y="18" width="120" height="32" rx="8" fill="#FFFFFF" stroke="#E2E8F0"/>
  <text x="1112" y="38" font-size="13" fill="#334155">Last 24 hours</text>
  <path d="M1198 32 l6 6 l6 -6" stroke="#94A3B8" stroke-width="1.4" fill="none" stroke-linecap="round" stroke-linejoin="round"/>

  <!-- Bell + avatar -->
  <circle cx="1248" cy="34" r="14" fill="#F1F5F9"/>
  <path d="M1244 30 a4 4 0 0 1 8 0 v4 l1 2 h-10 l1 -2 z M1246 38 a2 2 0 0 0 4 0" stroke="#475569" stroke-width="1.4" fill="none" stroke-linecap="round" stroke-linejoin="round"/>
  <circle cx="1254" cy="28" r="4" fill="#DC2626"/>

  <circle cx="1296" cy="34" r="16" fill="#6366F1"/>
  <text x="1296" y="39" font-size="13" font-weight="700" fill="#FFFFFF" text-anchor="middle">AS</text>

  <!-- Page title -->
  <text x="252" y="106" font-size="24" font-weight="700" fill="#0F172A">Dashboard</text>
  <text x="252" y="130" font-size="13" fill="#64748B">Health of every API your services touched in the last 24 hours.</text>

  <!-- KPI cards -->
  <g filter="url(#cardShadow)">
    <rect x="252" y="160" width="262" height="104" rx="12" fill="#FFFFFF" stroke="#E2E8F0"/>
    <text x="272" y="184" font-size="12" font-weight="600" fill="#64748B">TRACKED APIs</text>
    <text x="272" y="222" font-size="32" font-weight="700" fill="#0F172A">47</text>
    <text x="320" y="222" font-size="13" fill="#10B981">+4 this week</text>
    <rect x="272" y="240" width="222" height="6" rx="3" fill="#EEF2FF"/>
    <rect x="272" y="240" width="170" height="6" rx="3" fill="#6366F1"/>
  </g>

  <g filter="url(#cardShadow)">
    <rect x="528" y="160" width="262" height="104" rx="12" fill="#FFFFFF" stroke="#E2E8F0"/>
    <text x="548" y="184" font-size="12" font-weight="600" fill="#64748B">RISK EVENTS</text>
    <text x="548" y="222" font-size="32" font-weight="700" fill="#0F172A">3</text>
    <rect x="588" y="200" width="64" height="24" rx="12" fill="#FEE2E2"/>
    <text x="620" y="217" font-size="11" font-weight="700" fill="#B91C1C" text-anchor="middle">2 new</text>
    <text x="548" y="248" font-size="12" fill="#64748B">1 acknowledged · 2 unread</text>
  </g>

  <g filter="url(#cardShadow)">
    <rect x="804" y="160" width="262" height="104" rx="12" fill="#FFFFFF" stroke="#E2E8F0"/>
    <text x="824" y="184" font-size="12" font-weight="600" fill="#64748B">ZOMBIE APIs</text>
    <text x="824" y="222" font-size="32" font-weight="700" fill="#0F172A">5</text>
    <text x="872" y="222" font-size="13" fill="#F59E0B">≥ 30 days quiet</text>
    <text x="824" y="248" font-size="12" fill="#64748B">Last sweep: 4h ago</text>
  </g>

  <g filter="url(#cardShadow)">
    <rect x="1080" y="160" width="262" height="104" rx="12" fill="#FFFFFF" stroke="#E2E8F0"/>
    <text x="1100" y="184" font-size="12" font-weight="600" fill="#64748B">P95 INGEST LATENCY</text>
    <text x="1100" y="222" font-size="32" font-weight="700" fill="#0F172A">28<tspan font-size="18" fill="#64748B"> ms</tspan></text>
    <text x="1100" y="248" font-size="12" fill="#10B981">▼ 4ms vs yesterday</text>

    <!-- Mini sparkline -->
    <polyline points="1232,236 1244,232 1256,238 1268,228 1280,234 1292,222 1304,226 1316,218 1326,222"
      fill="none" stroke="#6366F1" stroke-width="1.6" stroke-linecap="round" stroke-linejoin="round"/>
  </g>

  <!-- Table card -->
  <g filter="url(#cardShadow)">
    <rect x="252" y="290" width="1090" height="490" rx="12" fill="#FFFFFF" stroke="#E2E8F0"/>

    <!-- Table header bar -->
    <text x="276" y="324" font-size="16" font-weight="700" fill="#0F172A">Top dependencies (last 24h)</text>
    <rect x="1170" y="304" width="152" height="30" rx="8" fill="#FFFFFF" stroke="#E2E8F0"/>
    <text x="1186" y="324" font-size="12" fill="#475569">Sort: call volume</text>
    <path d="M1300 318 l6 6 l6 -6" stroke="#94A3B8" stroke-width="1.4" fill="none" stroke-linecap="round" stroke-linejoin="round"/>

    <!-- Column headers -->
    <line x1="252" y1="356" x2="1342" y2="356" stroke="#E2E8F0"/>
    <text x="276" y="376" font-size="11" font-weight="700" fill="#64748B" letter-spacing="0.04em">API</text>
    <text x="606" y="376" font-size="11" font-weight="700" fill="#64748B" letter-spacing="0.04em">SERVICE</text>
    <text x="816" y="376" font-size="11" font-weight="700" fill="#64748B" letter-spacing="0.04em">CALLS (24H)</text>
    <text x="958" y="376" font-size="11" font-weight="700" fill="#64748B" letter-spacing="0.04em">ERROR RATE</text>
    <text x="1086" y="376" font-size="11" font-weight="700" fill="#64748B" letter-spacing="0.04em">P95</text>
    <text x="1216" y="376" font-size="11" font-weight="700" fill="#64748B" letter-spacing="0.04em">STATUS</text>
    <line x1="252" y1="388" x2="1342" y2="388" stroke="#E2E8F0"/>

    <!-- Row 1 -->
    <rect x="276" y="404" width="20" height="20" rx="4" fill="#635BFF"/>
    <text x="286" y="418" font-size="11" font-weight="700" fill="#FFFFFF" text-anchor="middle">S</text>
    <text x="306" y="412" font-size="13" font-weight="600" fill="#0F172A">api.stripe.com</text>
    <text x="306" y="428" font-size="11" font-family="ui-monospace, 'Cascadia Code', monospace" fill="#64748B">POST /v1/payment_intents</text>
    <text x="606" y="420" font-size="13" fill="#334155">payments-api</text>
    <text x="816" y="420" font-size="13" font-weight="600" fill="#0F172A">142,308</text>
    <text x="958" y="420" font-size="13" fill="#10B981">0.04%</text>
    <text x="1086" y="420" font-size="13" font-family="ui-monospace, 'Cascadia Code', monospace" fill="#0F172A">186 ms</text>
    <rect x="1216" y="408" width="74" height="22" rx="11" fill="#FEE2E2"/>
    <circle cx="1228" cy="419" r="3" fill="#DC2626"/>
    <text x="1238" y="423" font-size="11" font-weight="600" fill="#B91C1C">at-risk</text>
    <line x1="252" y1="446" x2="1342" y2="446" stroke="#F1F5F9"/>

    <!-- Row 2 -->
    <rect x="276" y="462" width="20" height="20" rx="4" fill="#F22F46"/>
    <text x="286" y="476" font-size="11" font-weight="700" fill="#FFFFFF" text-anchor="middle">T</text>
    <text x="306" y="470" font-size="13" font-weight="600" fill="#0F172A">api.twilio.com</text>
    <text x="306" y="486" font-size="11" font-family="ui-monospace, 'Cascadia Code', monospace" fill="#64748B">POST /2010-04-01/Accounts/{sid}/Messages</text>
    <text x="606" y="478" font-size="13" fill="#334155">notification-worker</text>
    <text x="816" y="478" font-size="13" font-weight="600" fill="#0F172A">38,914</text>
    <text x="958" y="478" font-size="13" fill="#10B981">0.12%</text>
    <text x="1086" y="478" font-size="13" font-family="ui-monospace, 'Cascadia Code', monospace" fill="#0F172A">244 ms</text>
    <rect x="1216" y="466" width="68" height="22" rx="11" fill="#ECFDF5"/>
    <circle cx="1228" cy="477" r="3" fill="#10B981"/>
    <text x="1238" y="481" font-size="11" font-weight="600" fill="#047857">healthy</text>
    <line x1="252" y1="504" x2="1342" y2="504" stroke="#F1F5F9"/>

    <!-- Row 3 -->
    <rect x="276" y="520" width="20" height="20" rx="4" fill="#1A82E2"/>
    <text x="286" y="534" font-size="11" font-weight="700" fill="#FFFFFF" text-anchor="middle">S</text>
    <text x="306" y="528" font-size="13" font-weight="600" fill="#0F172A">api.sendgrid.com</text>
    <text x="306" y="544" font-size="11" font-family="ui-monospace, 'Cascadia Code', monospace" fill="#64748B">POST /v3/mail/send</text>
    <text x="606" y="536" font-size="13" fill="#334155">notification-worker</text>
    <text x="816" y="536" font-size="13" font-weight="600" fill="#0F172A">24,716</text>
    <text x="958" y="536" font-size="13" fill="#F59E0B">0.81%</text>
    <text x="1086" y="536" font-size="13" font-family="ui-monospace, 'Cascadia Code', monospace" fill="#0F172A">312 ms</text>
    <rect x="1216" y="524" width="68" height="22" rx="11" fill="#ECFDF5"/>
    <circle cx="1228" cy="535" r="3" fill="#10B981"/>
    <text x="1238" y="539" font-size="11" font-weight="600" fill="#047857">healthy</text>
    <line x1="252" y1="562" x2="1342" y2="562" stroke="#F1F5F9"/>

    <!-- Row 4 -->
    <rect x="276" y="578" width="20" height="20" rx="4" fill="#10A37F"/>
    <text x="286" y="592" font-size="11" font-weight="700" fill="#FFFFFF" text-anchor="middle">O</text>
    <text x="306" y="586" font-size="13" font-weight="600" fill="#0F172A">api.openai.com</text>
    <text x="306" y="602" font-size="11" font-family="ui-monospace, 'Cascadia Code', monospace" fill="#64748B">POST /v1/chat/completions</text>
    <text x="606" y="594" font-size="13" fill="#334155">support-bot</text>
    <text x="816" y="594" font-size="13" font-weight="600" fill="#0F172A">12,442</text>
    <text x="958" y="594" font-size="13" fill="#F59E0B">2.30%</text>
    <text x="1086" y="594" font-size="13" font-family="ui-monospace, 'Cascadia Code', monospace" fill="#0F172A">1,840 ms</text>
    <rect x="1216" y="582" width="80" height="22" rx="11" fill="#FEF3C7"/>
    <circle cx="1228" cy="593" r="3" fill="#D97706"/>
    <text x="1238" y="597" font-size="11" font-weight="600" fill="#92400E">degraded</text>
    <line x1="252" y1="620" x2="1342" y2="620" stroke="#F1F5F9"/>

    <!-- Row 5 -->
    <rect x="276" y="636" width="20" height="20" rx="4" fill="#4A154B"/>
    <text x="286" y="650" font-size="11" font-weight="700" fill="#FFFFFF" text-anchor="middle">S</text>
    <text x="306" y="644" font-size="13" font-weight="600" fill="#0F172A">slack.com/api</text>
    <text x="306" y="660" font-size="11" font-family="ui-monospace, 'Cascadia Code', monospace" fill="#64748B">POST /chat.postMessage</text>
    <text x="606" y="652" font-size="13" fill="#334155">alerting-worker</text>
    <text x="816" y="652" font-size="13" font-weight="600" fill="#0F172A">8,201</text>
    <text x="958" y="652" font-size="13" fill="#10B981">0.00%</text>
    <text x="1086" y="652" font-size="13" font-family="ui-monospace, 'Cascadia Code', monospace" fill="#0F172A">96 ms</text>
    <rect x="1216" y="640" width="68" height="22" rx="11" fill="#ECFDF5"/>
    <circle cx="1228" cy="651" r="3" fill="#10B981"/>
    <text x="1238" y="655" font-size="11" font-weight="600" fill="#047857">healthy</text>
    <line x1="252" y1="678" x2="1342" y2="678" stroke="#F1F5F9"/>

    <!-- Row 6 -->
    <rect x="276" y="694" width="20" height="20" rx="4" fill="#181717"/>
    <text x="286" y="708" font-size="11" font-weight="700" fill="#FFFFFF" text-anchor="middle">G</text>
    <text x="306" y="702" font-size="13" font-weight="600" fill="#0F172A">api.github.com</text>
    <text x="306" y="718" font-size="11" font-family="ui-monospace, 'Cascadia Code', monospace" fill="#64748B">GET /repos/{owner}/{repo}/pulls</text>
    <text x="606" y="710" font-size="13" fill="#334155">release-gate</text>
    <text x="816" y="710" font-size="13" font-weight="600" fill="#0F172A">4,338</text>
    <text x="958" y="710" font-size="13" fill="#10B981">0.02%</text>
    <text x="1086" y="710" font-size="13" font-family="ui-monospace, 'Cascadia Code', monospace" fill="#0F172A">148 ms</text>
    <rect x="1216" y="698" width="68" height="22" rx="11" fill="#ECFDF5"/>
    <circle cx="1228" cy="709" r="3" fill="#10B981"/>
    <text x="1238" y="713" font-size="11" font-weight="600" fill="#047857">healthy</text>
    <line x1="252" y1="736" x2="1342" y2="736" stroke="#F1F5F9"/>

    <!-- Row 7 -->
    <rect x="276" y="752" width="20" height="20" rx="4" fill="#632CA6"/>
    <text x="286" y="766" font-size="11" font-weight="700" fill="#FFFFFF" text-anchor="middle">D</text>
    <text x="306" y="760" font-size="13" font-weight="600" fill="#0F172A">api.datadoghq.com</text>
    <text x="306" y="776" font-size="11" font-family="ui-monospace, 'Cascadia Code', monospace" fill="#64748B">POST /api/v2/logs</text>
    <text x="606" y="768" font-size="13" fill="#334155">all services</text>
    <text x="816" y="768" font-size="13" font-weight="600" fill="#0F172A">3,209</text>
    <text x="958" y="768" font-size="13" fill="#10B981">0.01%</text>
    <text x="1086" y="768" font-size="13" font-family="ui-monospace, 'Cascadia Code', monospace" fill="#0F172A">62 ms</text>
    <rect x="1216" y="756" width="68" height="22" rx="11" fill="#ECFDF5"/>
    <circle cx="1228" cy="767" r="3" fill="#10B981"/>
    <text x="1238" y="771" font-size="11" font-weight="600" fill="#047857">healthy</text>
  </g>

  <!-- Footer hint -->
  <text x="252" y="816" font-size="12" fill="#94A3B8">Showing 7 of 47 · </text>
  <text x="346" y="816" font-size="12" font-weight="600" fill="#4F46E5">View all dependencies →</text>
</svg>
