<svg xmlns="http://www.w3.org/2000/svg" viewBox="0 0 1400 900" font-family="-apple-system, 'Segoe UI', Roboto, Helvetica, Arial, sans-serif">
  <defs>
    <linearGradient id="logoGrad3" x1="0" y1="0" x2="1" y2="1">
      <stop offset="0%" stop-color="#6366F1"/>
      <stop offset="100%" stop-color="#8B5CF6"/>
    </linearGradient>
    <filter id="cardShadow3" x="-2%" y="-2%" width="104%" height="108%">
      <feDropShadow dx="0" dy="1" stdDeviation="2" flood-color="#0F172A" flood-opacity="0.04"/>
    </filter>
  </defs>

  <rect width="1400" height="900" fill="#F8FAFC"/>

  <!-- Sidebar -->
  <rect x="0" y="0" width="220" height="900" fill="#FFFFFF" stroke="#E2E8F0" stroke-width="1"/>
  <rect x="20" y="20" width="24" height="24" rx="6" fill="url(#logoGrad3)"/>
  <path d="M26 32 L30 36 L40 26" stroke="#FFFFFF" stroke-width="2.4" fill="none" stroke-linecap="round" stroke-linejoin="round"/>
  <text x="54" y="38" font-size="15" font-weight="700" fill="#0F172A">API Graveyard</text>

  <text x="20" y="86" font-size="11" font-weight="600" fill="#94A3B8" letter-spacing="0.05em">OVERVIEW</text>
  <text x="46" y="121" font-size="13" fill="#334155">Dashboard</text>
  <text x="46" y="157" font-size="13" fill="#334155">Dependencies</text>
  <rect x="12" y="170" width="196" height="36" rx="8" fill="#EEF2FF"/>
  <text x="46" y="193" font-size="13" font-weight="600" fill="#4F46E5">Risk events</text>
  <rect x="160" y="180" width="22" height="18" rx="9" fill="#DC2626"/>
  <text x="171" y="193" font-size="11" font-weight="700" fill="#FFFFFF" text-anchor="middle">3</text>
  <text x="46" y="229" font-size="13" fill="#334155">Zombie APIs</text>
  <rect x="160" y="216" width="22" height="18" rx="9" fill="#F1F5F9"/>
  <text x="171" y="229" font-size="11" font-weight="600" fill="#475569" text-anchor="middle">5</text>
  <text x="46" y="265" font-size="13" fill="#334155">Webhooks</text>
  <text x="20" y="318" font-size="11" font-weight="600" fill="#94A3B8" letter-spacing="0.05em">PROJECT</text>
  <text x="46" y="341" font-size="13" fill="#334155">Integrations</text>
  <text x="46" y="377" font-size="13" fill="#334155">Members</text>
  <text x="46" y="413" font-size="13" fill="#334155">Settings</text>

  <rect x="12" y="828" width="196" height="56" rx="8" fill="#F8FAFC"/>
  <circle cx="36" cy="856" r="14" fill="#6366F1"/>
  <text x="36" y="861" font-size="12" font-weight="700" fill="#FFFFFF" text-anchor="middle">AS</text>
  <text x="60" y="852" font-size="13" font-weight="600" fill="#0F172A">Aviad Shakargy</text>
  <text x="60" y="868" font-size="11" fill="#64748B">Owner · Free</text>

  <!-- Top bar -->
  <rect x="220" y="0" width="1180" height="64" fill="#FFFFFF" stroke="#E2E8F0" stroke-width="1"/>
  <rect x="244" y="18" width="184" height="32" rx="8" fill="#FFFFFF" stroke="#E2E8F0"/>
  <circle cx="262" cy="34" r="6" fill="#10B981"/>
  <text x="276" y="38" font-size="13" font-weight="600" fill="#0F172A">acme-prod</text>
  <rect x="442" y="22" width="92" height="24" rx="12" fill="#ECFDF5"/>
  <circle cx="456" cy="34" r="3" fill="#10B981"/>
  <text x="466" y="38" font-size="12" font-weight="600" fill="#047857">production</text>
  <circle cx="1296" cy="34" r="16" fill="#6366F1"/>
  <text x="1296" y="39" font-size="13" font-weight="700" fill="#FFFFFF" text-anchor="middle">AS</text>

  <!-- Breadcrumb -->
  <text x="252" y="98" font-size="12" fill="#64748B">Risk events  ›  </text>
  <text x="352" y="98" font-size="12" font-weight="600" fill="#0F172A">RSK-1042</text>

  <!-- Header -->
  <text x="252" y="134" font-size="24" font-weight="700" fill="#0F172A">Breaking change — </text>
  <text x="486" y="134" font-size="24" font-weight="700" fill="#0F172A">api.stripe.com</text>

  <!-- Severity row -->
  <rect x="252" y="152" width="86" height="26" rx="13" fill="#FEE2E2"/>
  <circle cx="266" cy="165" r="3.5" fill="#DC2626"/>
  <text x="278" y="170" font-size="12" font-weight="700" fill="#B91C1C">CRITICAL</text>

  <rect x="346" y="152" width="98" height="26" rx="13" fill="#F1F5F9"/>
  <text x="395" y="170" font-size="12" font-weight="600" fill="#475569" text-anchor="middle">Unread</text>

  <text x="456" y="170" font-size="12" fill="#64748B">Detected 2026-05-09 14:22 UTC · 18h ago</text>

  <!-- Action buttons (top right) -->
  <rect x="1112" y="148" width="106" height="34" rx="8" fill="#FFFFFF" stroke="#E2E8F0"/>
  <text x="1165" y="170" font-size="13" font-weight="600" fill="#475569" text-anchor="middle">Snooze 7d</text>

  <rect x="1228" y="148" width="114" height="34" rx="8" fill="#0F172A"/>
  <text x="1285" y="170" font-size="13" font-weight="600" fill="#FFFFFF" text-anchor="middle">Acknowledge</text>

  <!-- LEFT COLUMN -->

  <!-- Summary card -->
  <g filter="url(#cardShadow3)">
    <rect x="252" y="208" width="700" height="200" rx="12" fill="#FFFFFF" stroke="#E2E8F0"/>
    <rect x="252" y="208" width="6" height="200" rx="3" fill="#DC2626"/>

    <text x="276" y="240" font-size="11" font-weight="700" fill="#64748B" letter-spacing="0.05em">SUMMARY</text>

    <text x="276" y="270" font-size="15" font-weight="600" fill="#0F172A">Stripe deprecated the </text>
    <text x="500" y="270" font-size="15" font-weight="700" font-family="ui-monospace, 'Cascadia Code', monospace" fill="#0F172A">application_fee</text>
    <text x="664" y="270" font-size="15" font-weight="600" fill="#0F172A"> field on</text>

    <text x="276" y="292" font-size="15" font-weight="700" font-family="ui-monospace, 'Cascadia Code', monospace" fill="#0F172A">POST /v1/payment_intents</text>
    <text x="558" y="292" font-size="15" font-weight="600" fill="#0F172A">. Replacement: </text>
    <text x="690" y="292" font-size="15" font-weight="700" font-family="ui-monospace, 'Cascadia Code', monospace" fill="#0F172A">application_fee_amount</text>

    <text x="276" y="314" font-size="15" font-weight="600" fill="#0F172A">on the new </text>
    <text x="375" y="314" font-size="15" font-weight="700" font-family="ui-monospace, 'Cascadia Code', monospace" fill="#0F172A">transfer_data</text>
    <text x="510" y="314" font-size="15" font-weight="600" fill="#0F172A"> object. Old field removed </text>
    <text x="746" y="314" font-size="15" font-weight="700" fill="#DC2626">2026-08-01</text>
    <text x="822" y="314" font-size="15" font-weight="600" fill="#0F172A">.</text>

    <text x="276" y="354" font-size="12" fill="#64748B">Source: </text>
    <text x="316" y="354" font-size="12" font-weight="600" fill="#4F46E5">stripe.com/docs/upgrades#2026-05-08</text>
    <text x="586" y="354" font-size="12" fill="#64748B">  · Classified by NLP at confidence 0.94</text>

    <!-- Recommended action -->
    <rect x="276" y="372" width="652" height="28" rx="6" fill="#FEF3C7"/>
    <text x="290" y="390" font-size="12" font-weight="700" fill="#92400E">⚠  Recommended:</text>
    <text x="394" y="390" font-size="12" fill="#78350F"> rename field before 2026-08-01. 89 days remaining.</text>
  </g>

  <!-- Affected services card -->
  <g filter="url(#cardShadow3)">
    <rect x="252" y="428" width="700" height="200" rx="12" fill="#FFFFFF" stroke="#E2E8F0"/>
    <text x="276" y="460" font-size="11" font-weight="700" fill="#64748B" letter-spacing="0.05em">AFFECTED SERVICES (1)</text>

    <!-- Service row -->
    <rect x="276" y="478" width="652" height="76" rx="8" fill="#F8FAFC" stroke="#E2E8F0"/>
    <rect x="290" y="492" width="36" height="36" rx="8" fill="#EEF2FF"/>
    <text x="308" y="515" font-size="13" font-weight="700" fill="#4F46E5" text-anchor="middle">PY</text>

    <text x="340" y="504" font-size="14" font-weight="700" fill="#0F172A">payments-api</text>
    <text x="340" y="524" font-size="12" fill="#64748B">Python SDK v1.4.2 · last deployed 2026-05-07 09:11 UTC</text>
    <text x="340" y="542" font-size="12" font-family="ui-monospace, 'Cascadia Code', monospace" fill="#475569">src/billing/charges.py:48,  src/billing/refunds.py:131</text>

    <rect x="816" y="494" width="98" height="22" rx="11" fill="#FEE2E2"/>
    <circle cx="828" cy="505" r="3" fill="#DC2626"/>
    <text x="864" y="509" font-size="11" font-weight="600" fill="#B91C1C" text-anchor="middle">1,247 calls/24h</text>

    <text x="816" y="538" font-size="11" font-weight="600" fill="#4F46E5">View call sites →</text>

    <text x="276" y="600" font-size="12" fill="#94A3B8">No other service calls this endpoint with the affected field.</text>
  </g>

  <!-- Activity timeline -->
  <g filter="url(#cardShadow3)">
    <rect x="252" y="648" width="700" height="202" rx="12" fill="#FFFFFF" stroke="#E2E8F0"/>
    <text x="276" y="680" font-size="11" font-weight="700" fill="#64748B" letter-spacing="0.05em">TIMELINE</text>

    <!-- timeline track -->
    <line x1="294" y1="708" x2="294" y2="830" stroke="#E2E8F0" stroke-width="2"/>

    <circle cx="294" cy="712" r="6" fill="#DC2626"/>
    <text x="312" y="708" font-size="13" font-weight="600" fill="#0F172A">Risk event created</text>
    <text x="312" y="724" font-size="11" font-family="ui-monospace, 'Cascadia Code', monospace" fill="#64748B">2026-05-09 14:22:08 UTC</text>

    <circle cx="294" cy="754" r="5" fill="#6366F1"/>
    <text x="312" y="750" font-size="13" font-weight="600" fill="#0F172A">Webhook delivered → #releases (Slack)</text>
    <text x="312" y="766" font-size="11" font-family="ui-monospace, 'Cascadia Code', monospace" fill="#64748B">2026-05-09 14:22:11 UTC · 200 OK</text>

    <circle cx="294" cy="794" r="5" fill="#94A3B8"/>
    <text x="312" y="790" font-size="13" font-weight="600" fill="#0F172A">Changelog scrape (Stripe)</text>
    <text x="312" y="806" font-size="11" font-family="ui-monospace, 'Cascadia Code', monospace" fill="#64748B">2026-05-09 14:21:42 UTC · matched rule R-payments-stripe</text>

    <circle cx="294" cy="832" r="5" fill="#94A3B8"/>
    <text x="312" y="828" font-size="13" font-weight="600" fill="#0F172A">Stripe published changelog</text>
    <text x="312" y="844" font-size="11" font-family="ui-monospace, 'Cascadia Code', monospace" fill="#64748B">2026-05-08 22:00:00 UTC · 16h lead time</text>
  </g>

  <!-- RIGHT COLUMN -->

  <!-- Diff / proposed change card -->
  <g filter="url(#cardShadow3)">
    <rect x="972" y="208" width="370" height="420" rx="12" fill="#FFFFFF" stroke="#E2E8F0"/>
    <text x="996" y="240" font-size="11" font-weight="700" fill="#64748B" letter-spacing="0.05em">PROPOSED CHANGE</text>
    <text x="996" y="260" font-size="12" fill="#94A3B8">src/billing/charges.py · line 48</text>

    <rect x="988" y="276" width="338" height="332" rx="8" fill="#0F172A"/>

    <!-- code lines -->
    <text x="1004" y="298" font-size="12" font-family="ui-monospace, 'Cascadia Code', monospace" fill="#64748B">  44</text>
    <text x="1042" y="298" font-size="12" font-family="ui-monospace, 'Cascadia Code', monospace" fill="#CBD5E1">stripe.PaymentIntent.create(</text>

    <text x="1004" y="316" font-size="12" font-family="ui-monospace, 'Cascadia Code', monospace" fill="#64748B">  45</text>
    <text x="1042" y="316" font-size="12" font-family="ui-monospace, 'Cascadia Code', monospace" fill="#CBD5E1">    amount=amount,</text>

    <text x="1004" y="334" font-size="12" font-family="ui-monospace, 'Cascadia Code', monospace" fill="#64748B">  46</text>
    <text x="1042" y="334" font-size="12" font-family="ui-monospace, 'Cascadia Code', monospace" fill="#CBD5E1">    currency="usd",</text>

    <text x="1004" y="352" font-size="12" font-family="ui-monospace, 'Cascadia Code', monospace" fill="#64748B">  47</text>
    <text x="1042" y="352" font-size="12" font-family="ui-monospace, 'Cascadia Code', monospace" fill="#CBD5E1">    customer=customer.id,</text>

    <!-- removed line -->
    <rect x="988" y="358" width="338" height="20" fill="#7F1D1D" opacity="0.4"/>
    <text x="1004" y="372" font-size="12" font-family="ui-monospace, 'Cascadia Code', monospace" fill="#FCA5A5">- 48</text>
    <text x="1042" y="372" font-size="12" font-family="ui-monospace, 'Cascadia Code', monospace" fill="#FCA5A5">    application_fee=fee,</text>

    <!-- added lines -->
    <rect x="988" y="378" width="338" height="60" fill="#064E3B" opacity="0.4"/>
    <text x="1004" y="392" font-size="12" font-family="ui-monospace, 'Cascadia Code', monospace" fill="#6EE7B7">+ 48</text>
    <text x="1042" y="392" font-size="12" font-family="ui-monospace, 'Cascadia Code', monospace" fill="#6EE7B7">    transfer_data={</text>

    <text x="1004" y="410" font-size="12" font-family="ui-monospace, 'Cascadia Code', monospace" fill="#6EE7B7">+ 49</text>
    <text x="1042" y="410" font-size="12" font-family="ui-monospace, 'Cascadia Code', monospace" fill="#6EE7B7">        "application_fee_amount": fee,</text>

    <text x="1004" y="428" font-size="12" font-family="ui-monospace, 'Cascadia Code', monospace" fill="#6EE7B7">+ 50</text>
    <text x="1042" y="428" font-size="12" font-family="ui-monospace, 'Cascadia Code', monospace" fill="#6EE7B7">    },</text>

    <text x="1004" y="446" font-size="12" font-family="ui-monospace, 'Cascadia Code', monospace" fill="#64748B">  51</text>
    <text x="1042" y="446" font-size="12" font-family="ui-monospace, 'Cascadia Code', monospace" fill="#CBD5E1">    metadata={</text>

    <text x="1004" y="464" font-size="12" font-family="ui-monospace, 'Cascadia Code', monospace" fill="#64748B">  52</text>
    <text x="1042" y="464" font-size="12" font-family="ui-monospace, 'Cascadia Code', monospace" fill="#CBD5E1">        "order_id": order.id,</text>

    <text x="1004" y="482" font-size="12" font-family="ui-monospace, 'Cascadia Code', monospace" fill="#64748B">  53</text>
    <text x="1042" y="482" font-size="12" font-family="ui-monospace, 'Cascadia Code', monospace" fill="#CBD5E1">    },</text>

    <text x="1004" y="500" font-size="12" font-family="ui-monospace, 'Cascadia Code', monospace" fill="#64748B">  54</text>
    <text x="1042" y="500" font-size="12" font-family="ui-monospace, 'Cascadia Code', monospace" fill="#CBD5E1">)</text>

    <!-- Actions strip -->
    <rect x="988" y="530" width="338" height="64" rx="8" fill="#1E293B"/>
    <text x="1004" y="554" font-size="11" font-weight="700" fill="#94A3B8" letter-spacing="0.05em">SHIP IT</text>
    <rect x="1004" y="562" width="148" height="22" rx="6" fill="#6366F1"/>
    <text x="1078" y="577" font-size="11" font-weight="600" fill="#FFFFFF" text-anchor="middle">Open PR in GitHub</text>
    <rect x="1160" y="562" width="142" height="22" rx="6" fill="#334155"/>
    <text x="1231" y="577" font-size="11" font-weight="600" fill="#E2E8F0" text-anchor="middle">Copy as patch</text>
  </g>

  <!-- Block-release card -->
  <g filter="url(#cardShadow3)">
    <rect x="972" y="648" width="370" height="202" rx="12" fill="#FFFFFF" stroke="#E2E8F0"/>
    <text x="996" y="680" font-size="11" font-weight="700" fill="#64748B" letter-spacing="0.05em">RELEASE GATE</text>

    <circle cx="1010" cy="706" r="10" fill="#FEE2E2"/>
    <text x="1010" y="711" font-size="14" font-weight="700" fill="#B91C1C" text-anchor="middle">!</text>
    <text x="1030" y="704" font-size="13" font-weight="600" fill="#0F172A">Blocks payments-api deploys</text>
    <text x="1030" y="722" font-size="12" fill="#64748B">until acknowledged or snoozed.</text>

    <rect x="996" y="744" width="320" height="42" rx="8" fill="#F8FAFC" stroke="#E2E8F0"/>
    <text x="1010" y="762" font-size="11" font-weight="700" fill="#64748B">CI WEBHOOK</text>
    <text x="1010" y="780" font-size="12" font-family="ui-monospace, 'Cascadia Code', monospace" fill="#0F172A">github.com/acme-corp/payments-api</text>

    <text x="996" y="816" font-size="11" font-weight="600" fill="#4F46E5">Configure gate behavior →</text>
  </g>
</svg>
