<svg xmlns="http://www.w3.org/2000/svg" viewBox="0 0 1400 900" font-family="-apple-system, 'Segoe UI', Roboto, Helvetica, Arial, sans-serif">
  <defs>
    <linearGradient id="logoGrad4" x1="0" y1="0" x2="1" y2="1">
      <stop offset="0%" stop-color="#6366F1"/>
      <stop offset="100%" stop-color="#8B5CF6"/>
    </linearGradient>
    <filter id="cardShadow4" x="-2%" y="-2%" width="104%" height="108%">
      <feDropShadow dx="0" dy="1" stdDeviation="2" flood-color="#0F172A" flood-opacity="0.04"/>
    </filter>
  </defs>

  <rect width="1400" height="900" fill="#F8FAFC"/>

  <!-- Sidebar -->
  <rect x="0" y="0" width="220" height="900" fill="#FFFFFF" stroke="#E2E8F0" stroke-width="1"/>
  <rect x="20" y="20" width="24" height="24" rx="6" fill="url(#logoGrad4)"/>
  <path d="M26 32 L30 36 L40 26" stroke="#FFFFFF" stroke-width="2.4" fill="none" stroke-linecap="round" stroke-linejoin="round"/>
  <text x="54" y="38" font-size="15" font-weight="700" fill="#0F172A">API Graveyard</text>

  <text x="20" y="86" font-size="11" font-weight="600" fill="#94A3B8" letter-spacing="0.05em">OVERVIEW</text>
  <text x="46" y="121" font-size="13" fill="#334155">Dashboard</text>
  <text x="46" y="157" font-size="13" fill="#334155">Dependencies</text>
  <text x="46" y="193" font-size="13" fill="#334155">Risk events</text>
  <rect x="160" y="180" width="22" height="18" rx="9" fill="#DC2626"/>
  <text x="171" y="193" font-size="11" font-weight="700" fill="#FFFFFF" text-anchor="middle">3</text>
  <rect x="12" y="206" width="196" height="36" rx="8" fill="#EEF2FF"/>
  <text x="46" y="229" font-size="13" font-weight="600" fill="#4F46E5">Zombie APIs</text>
  <rect x="160" y="216" width="22" height="18" rx="9" fill="#4F46E5"/>
  <text x="171" y="229" font-size="11" font-weight="700" fill="#FFFFFF" text-anchor="middle">5</text>
  <text x="46" y="265" font-size="13" fill="#334155">Webhooks</text>
  <text x="20" y="318" font-size="11" font-weight="600" fill="#94A3B8" letter-spacing="0.05em">PROJECT</text>
  <text x="46" y="341" font-size="13" fill="#334155">Integrations</text>
  <text x="46" y="377" font-size="13" fill="#334155">Members</text>
  <text x="46" y="413" font-size="13" fill="#334155">Settings</text>

  <rect x="12" y="828" width="196" height="56" rx="8" fill="#F8FAFC"/>
  <circle cx="36" cy="856" r="14" fill="#6366F1"/>
  <text x="36" y="861" font-size="12" font-weight="700" fill="#FFFFFF" text-anchor="middle">AS</text>
  <text x="60" y="852" font-size="13" font-weight="600" fill="#0F172A">Aviad Shakargy</text>
  <text x="60" y="868" font-size="11" fill="#64748B">Owner · Free</text>

  <!-- Top bar -->
  <rect x="220" y="0" width="1180" height="64" fill="#FFFFFF" stroke="#E2E8F0" stroke-width="1"/>
  <rect x="244" y="18" width="184" height="32" rx="8" fill="#FFFFFF" stroke="#E2E8F0"/>
  <circle cx="262" cy="34" r="6" fill="#10B981"/>
  <text x="276" y="38" font-size="13" font-weight="600" fill="#0F172A">acme-prod</text>
  <rect x="442" y="22" width="92" height="24" rx="12" fill="#ECFDF5"/>
  <circle cx="456" cy="34" r="3" fill="#10B981"/>
  <text x="466" y="38" font-size="12" font-weight="600" fill="#047857">production</text>
  <circle cx="1296" cy="34" r="16" fill="#6366F1"/>
  <text x="1296" y="39" font-size="13" font-weight="700" fill="#FFFFFF" text-anchor="middle">AS</text>

  <!-- Page title -->
  <text x="252" y="106" font-size="24" font-weight="700" fill="#0F172A">Zombie APIs</text>
  <text x="252" y="130" font-size="13" fill="#64748B">Endpoints you used to call and don't anymore. Probably safe to remove — verify before you do.</text>

  <!-- Filter chips + actions -->
  <rect x="252" y="156" width="64" height="30" rx="15" fill="#0F172A"/>
  <text x="284" y="176" font-size="12" font-weight="600" fill="#FFFFFF" text-anchor="middle">All · 5</text>

  <rect x="324" y="156" width="92" height="30" rx="15" fill="#FFFFFF" stroke="#E2E8F0"/>
  <text x="370" y="176" font-size="12" font-weight="600" fill="#475569" text-anchor="middle">≥ 7 days</text>

  <rect x="424" y="156" width="100" height="30" rx="15" fill="#FFFFFF" stroke="#E2E8F0"/>
  <text x="474" y="176" font-size="12" font-weight="600" fill="#475569" text-anchor="middle">≥ 30 days</text>

  <rect x="532" y="156" width="100" height="30" rx="15" fill="#FFFFFF" stroke="#E2E8F0"/>
  <text x="582" y="176" font-size="12" font-weight="600" fill="#475569" text-anchor="middle">≥ 90 days</text>

  <!-- Right side: export -->
  <rect x="1210" y="156" width="132" height="30" rx="8" fill="#FFFFFF" stroke="#E2E8F0"/>
  <text x="1276" y="176" font-size="12" font-weight="600" fill="#475569" text-anchor="middle">Export CSV</text>

  <!-- Hero counter card -->
  <g filter="url(#cardShadow4)">
    <rect x="252" y="208" width="1090" height="84" rx="12" fill="#FFFFFF" stroke="#E2E8F0"/>

    <text x="276" y="240" font-size="11" font-weight="700" fill="#64748B" letter-spacing="0.05em">QUIET ENDPOINTS</text>
    <text x="276" y="276" font-size="32" font-weight="700" fill="#0F172A">5</text>
    <text x="316" y="276" font-size="14" fill="#64748B">endpoints have not been called in 30+ days</text>

    <!-- breakdown bars -->
    <text x="800" y="232" font-size="11" font-weight="700" fill="#64748B" letter-spacing="0.05em">BY AGE</text>

    <text x="800" y="254" font-size="12" fill="#475569">7–30 days</text>
    <rect x="876" y="244" width="240" height="10" rx="5" fill="#FEF3C7"/>
    <rect x="876" y="244" width="96" height="10" rx="5" fill="#D97706"/>
    <text x="1124" y="253" font-size="12" font-weight="600" fill="#0F172A">2</text>

    <text x="800" y="276" font-size="12" fill="#475569">30–90 days</text>
    <rect x="876" y="266" width="240" height="10" rx="5" fill="#FED7AA"/>
    <rect x="876" y="266" width="144" height="10" rx="5" fill="#EA580C"/>
    <text x="1124" y="275" font-size="12" font-weight="600" fill="#0F172A">2</text>

    <!-- "90+ days" row -->
    <text x="1180" y="254" font-size="12" fill="#475569">90+ days</text>
    <rect x="1240" y="244" width="80" height="10" rx="5" fill="#FECACA"/>
    <rect x="1240" y="244" width="32" height="10" rx="5" fill="#DC2626"/>
    <text x="1328" y="253" font-size="12" font-weight="600" fill="#0F172A">1</text>
  </g>

  <!-- Table card -->
  <g filter="url(#cardShadow4)">
    <rect x="252" y="312" width="1090" height="538" rx="12" fill="#FFFFFF" stroke="#E2E8F0"/>

    <!-- header -->
    <text x="276" y="344" font-size="16" font-weight="700" fill="#0F172A">Quiet endpoints</text>
    <text x="276" y="362" font-size="12" fill="#94A3B8">Sorted by days quiet (descending)</text>

    <line x1="252" y1="386" x2="1342" y2="386" stroke="#E2E8F0"/>
    <text x="276" y="406" font-size="11" font-weight="700" fill="#64748B" letter-spacing="0.04em">ENDPOINT</text>
    <text x="780" y="406" font-size="11" font-weight="700" fill="#64748B" letter-spacing="0.04em">LAST CALLED BY</text>
    <text x="1010" y="406" font-size="11" font-weight="700" fill="#64748B" letter-spacing="0.04em">LAST SEEN</text>
    <text x="1146" y="406" font-size="11" font-weight="700" fill="#64748B" letter-spacing="0.04em">DAYS QUIET</text>
    <text x="1268" y="406" font-size="11" font-weight="700" fill="#64748B" letter-spacing="0.04em">ACTIONS</text>
    <line x1="252" y1="418" x2="1342" y2="418" stroke="#E2E8F0"/>

    <!-- Row 1: 142 days, dead -->
    <rect x="276" y="434" width="20" height="20" rx="4" fill="#181717"/>
    <text x="286" y="448" font-size="11" font-weight="700" fill="#FFFFFF" text-anchor="middle">G</text>
    <text x="306" y="442" font-size="13" font-weight="600" fill="#0F172A">api.github.com</text>
    <text x="306" y="458" font-size="11" font-family="ui-monospace, 'Cascadia Code', monospace" fill="#64748B">GET /repos/{owner}/{repo}/contributors/stats</text>

    <text x="780" y="442" font-size="13" fill="#334155">analytics-cron</text>
    <text x="780" y="458" font-size="11" fill="#94A3B8">decommissioned 2025-12</text>

    <text x="1010" y="442" font-size="13" fill="#334155">2025-12-20</text>
    <text x="1010" y="458" font-size="11" fill="#94A3B8">5 months ago</text>

    <rect x="1146" y="430" width="64" height="28" rx="14" fill="#FEE2E2"/>
    <text x="1178" y="448" font-size="13" font-weight="700" fill="#B91C1C" text-anchor="middle">142</text>

    <rect x="1268" y="432" width="56" height="24" rx="6" fill="#0F172A"/>
    <text x="1296" y="448" font-size="11" font-weight="600" fill="#FFFFFF" text-anchor="middle">Bury</text>
    <line x1="252" y1="478" x2="1342" y2="478" stroke="#F1F5F9"/>

    <!-- Row 2: 73 days -->
    <rect x="276" y="494" width="20" height="20" rx="4" fill="#FF7139"/>
    <text x="286" y="508" font-size="11" font-weight="700" fill="#FFFFFF" text-anchor="middle">M</text>
    <text x="306" y="502" font-size="13" font-weight="600" fill="#0F172A">api.mailchimp.com</text>
    <text x="306" y="518" font-size="11" font-family="ui-monospace, 'Cascadia Code', monospace" fill="#64748B">POST /3.0/lists/{list_id}/members</text>

    <text x="780" y="502" font-size="13" fill="#334155">crm-sync</text>
    <text x="780" y="518" font-size="11" fill="#94A3B8">replaced by /audiences endpoint</text>

    <text x="1010" y="502" font-size="13" fill="#334155">2026-02-27</text>
    <text x="1010" y="518" font-size="11" fill="#94A3B8">73 days ago</text>

    <rect x="1146" y="490" width="64" height="28" rx="14" fill="#FED7AA"/>
    <text x="1178" y="508" font-size="13" font-weight="700" fill="#9A3412" text-anchor="middle">73</text>

    <rect x="1268" y="492" width="56" height="24" rx="6" fill="#0F172A"/>
    <text x="1296" y="508" font-size="11" font-weight="600" fill="#FFFFFF" text-anchor="middle">Bury</text>
    <line x1="252" y1="538" x2="1342" y2="538" stroke="#F1F5F9"/>

    <!-- Row 3: 52 days -->
    <rect x="276" y="554" width="20" height="20" rx="4" fill="#0061FF"/>
    <text x="286" y="568" font-size="11" font-weight="700" fill="#FFFFFF" text-anchor="middle">B</text>
    <text x="306" y="562" font-size="13" font-weight="600" fill="#0F172A">api.dropboxapi.com</text>
    <text x="306" y="578" font-size="11" font-family="ui-monospace, 'Cascadia Code', monospace" fill="#64748B">POST /2/files/upload</text>

    <text x="780" y="562" font-size="13" fill="#334155">export-worker</text>
    <text x="780" y="578" font-size="11" fill="#94A3B8">migrated to S3</text>

    <text x="1010" y="562" font-size="13" fill="#334155">2026-03-20</text>
    <text x="1010" y="578" font-size="11" fill="#94A3B8">52 days ago</text>

    <rect x="1146" y="550" width="64" height="28" rx="14" fill="#FED7AA"/>
    <text x="1178" y="568" font-size="13" font-weight="700" fill="#9A3412" text-anchor="middle">52</text>

    <rect x="1268" y="552" width="56" height="24" rx="6" fill="#0F172A"/>
    <text x="1296" y="568" font-size="11" font-weight="600" fill="#FFFFFF" text-anchor="middle">Bury</text>
    <line x1="252" y1="598" x2="1342" y2="598" stroke="#F1F5F9"/>

    <!-- Row 4: 24 days -->
    <rect x="276" y="614" width="20" height="20" rx="4" fill="#EB5424"/>
    <text x="286" y="628" font-size="11" font-weight="700" fill="#FFFFFF" text-anchor="middle">A</text>
    <text x="306" y="622" font-size="13" font-weight="600" fill="#0F172A">api.algolia.com</text>
    <text x="306" y="638" font-size="11" font-family="ui-monospace, 'Cascadia Code', monospace" fill="#64748B">POST /1/indexes/products/batch</text>

    <text x="780" y="622" font-size="13" fill="#334155">search-indexer</text>
    <text x="780" y="638" font-size="11" fill="#94A3B8">last hit during partial deploy</text>

    <text x="1010" y="622" font-size="13" fill="#334155">2026-04-17</text>
    <text x="1010" y="638" font-size="11" fill="#94A3B8">24 days ago</text>

    <rect x="1146" y="610" width="64" height="28" rx="14" fill="#FEF3C7"/>
    <text x="1178" y="628" font-size="13" font-weight="700" fill="#92400E" text-anchor="middle">24</text>

    <rect x="1268" y="612" width="80" height="24" rx="6" fill="#FFFFFF" stroke="#E2E8F0"/>
    <text x="1308" y="628" font-size="11" font-weight="600" fill="#475569" text-anchor="middle">Investigate</text>
    <line x1="252" y1="658" x2="1342" y2="658" stroke="#F1F5F9"/>

    <!-- Row 5: 11 days -->
    <rect x="276" y="674" width="20" height="20" rx="4" fill="#0073EC"/>
    <text x="286" y="688" font-size="11" font-weight="700" fill="#FFFFFF" text-anchor="middle">P</text>
    <text x="306" y="682" font-size="13" font-weight="600" fill="#0F172A">api.posthog.com</text>
    <text x="306" y="698" font-size="11" font-family="ui-monospace, 'Cascadia Code', monospace" fill="#64748B">POST /capture/</text>

    <text x="780" y="682" font-size="13" fill="#334155">web-frontend (server-side)</text>
    <text x="780" y="698" font-size="11" fill="#94A3B8">replaced by client-side SDK</text>

    <text x="1010" y="682" font-size="13" fill="#334155">2026-04-30</text>
    <text x="1010" y="698" font-size="11" fill="#94A3B8">11 days ago</text>

    <rect x="1146" y="670" width="64" height="28" rx="14" fill="#FEF3C7"/>
    <text x="1178" y="688" font-size="13" font-weight="700" fill="#92400E" text-anchor="middle">11</text>

    <rect x="1268" y="672" width="80" height="24" rx="6" fill="#FFFFFF" stroke="#E2E8F0"/>
    <text x="1308" y="688" font-size="11" font-weight="600" fill="#475569" text-anchor="middle">Investigate</text>

    <!-- footer -->
    <line x1="252" y1="784" x2="1342" y2="784" stroke="#F1F5F9"/>
    <text x="276" y="810" font-size="12" fill="#94A3B8">Showing 5 of 5 zombie endpoints across 5 services.</text>
    <text x="276" y="828" font-size="11" fill="#94A3B8">"Bury" archives the endpoint and stops surfacing it in alerts. Reversible from Settings → Archive.</text>
  </g>
</svg>
